custom-analysis
version=1
nRows=14
nColumns=42
inDegrees=no

This file contains tibia displacement and acting force.

Units are S.I. units (seconds, meters, Newtons, ...)
Angles are in degrees.

endheader
time	APT	SIT	knee_angle	aACL_R_force	pACL_R_force	aPCL_R_force	pPCL_R_force	aMCL_R_force	mMCL_R_force	pMCL_R_force	aLCL_R_force	mLCL_R_force	pLCL_R_force	aACL_R_length	pACL_R_length	aPCL_R_length	pPCL_R_length	aMCL_R_length	mMCL_R_length	pMCL_R_length	aLCL_R_length	mLCL_R_length	pLCL_R_length	aACL_R_strain	pACL_R_strain	aPCL_R_strain	pPCL_R_strain	aMCL_R_strain	mMCL_R_strain	pMCL_R_strain	aLCL_R_strain	mLCL_R_strain	pLCL_R_strain	femur_lat_meniscii_force_r	femur_lat_meniscii_torque_r	femur_med_meniscii_force_r	femur_med_meniscii_torque_r	femur_lat_tibia_force_r	femur_lat_tibia_torque_r	femur_med_tibia_force_r	femur_med_tibia_torque_r
      0.00000000	      0.00000000	      0.00000000	      1.66574369	      5.09062031	     10.77177919	      0.00000000	      0.00000000	      0.00000000	      3.83340630	     15.82680930	      0.67560592	      0.00000000	      1.56026721	      0.03283933	      0.02724628	      0.02922628	      0.02963990	      0.05630769	      0.06122731	      0.06351768	      0.05657962	      0.05503431	      0.05319875	      0.02605282	      0.03367301	     -0.06010633	     -0.01488641	     -0.02962948	      0.02397939	      0.04593736	      0.01076188	     -0.02280408	      0.01635464	    241.33695877	     45.81512231	    105.98519951	     13.14386750	      0.00000000	      0.00000000	      0.00000000	      0.00000000
      0.00088796	      0.00000281	      0.00000985	      1.66574369	     -1.67080415	      3.26719203	      0.00000000	      0.00000000	      0.00000000	     -7.03289884	      5.11854090	    -13.45587830	      0.00000000	    -12.52611965	      0.03283006	      0.02723658	      0.02921840	      0.02963167	      0.05629921	      0.06121856	      0.06350907	      0.05657052	      0.05502522	      0.05318967	      0.02576313	      0.03330524	     -0.06035975	     -0.01515982	     -0.02977565	      0.02383295	      0.04579558	      0.01059938	     -0.02296546	      0.01618115	    325.86061575	     61.92470998	    145.95770339	     17.51547961	      0.00000000	      0.00000000	      0.00000000	      0.00000000
      0.00177593	      0.00000948	      0.00002565	      1.66574369	     -2.98944878	      1.28151941	      0.00000000	      0.00000000	      0.00000000	     -6.25480489	      5.93890888	    -12.38615770	      0.00000000	    -11.32528161	      0.03281320	      0.02721838	      0.02920687	      0.02961952	      0.05628679	      0.06120546	      0.06349630	      0.05655698	      0.05501176	      0.05317625	      0.02523637	      0.03261460	     -0.06073027	     -0.01556373	     -0.02998972	      0.02361388	      0.04558530	      0.01035745	     -0.02320434	      0.01592482	    340.60491012	     65.23365565	    159.41176680	     18.78305901	      0.00000000	      0.00000000	      0.00000000	      0.00000000
      0.00312421	      0.00002521	      0.00004569	      1.66574369	     -2.09726845	      1.46473319	      0.00000000	      0.00000000	      0.00000000	     -1.98303542	     10.28635264	     -7.25350522	      0.00000000	     -5.96293129	      0.03278803	      0.02718980	      0.02919380	      0.02960559	      0.05627385	      0.06119109	      0.06348268	      0.05654179	      0.05499694	      0.05316155	      0.02444979	      0.03153050	     -0.06115064	     -0.01602676	     -0.03021268	      0.02337354	      0.04536098	      0.01008601	     -0.02346758	      0.01564392	    340.25962174	     66.21811141	    163.71696835	     18.84308399	      0.00000000	      0.00000000	      0.00000000	      0.00000000
      0.00518161	      0.00005908	      0.00006269	      1.66574369	      1.09027066	      4.20397937	      0.00000000	      0.00000000	      0.00000000	      3.78638230	     16.17334662	     -0.70846956	      0.00000000	      0.83586525	      0.03276205	      0.02715729	      0.02918268	      0.02959398	      0.05626861	      0.06118346	      0.06347666	      0.05653156	      0.05498776	      0.05315268	      0.02363811	      0.03029691	     -0.06150820	     -0.01641264	     -0.03030298	      0.02324604	      0.04526177	      0.00990335	     -0.02363060	      0.01547447	    331.06624977	     65.77771868	    152.38392839	     17.08075301	      0.00000000	      0.00000000	      0.00000000	      0.00000000
      0.00667649	      0.00008705	      0.00006602	      1.66574369	      2.93175995	      6.01807105	      0.00000000	      0.00000000	      0.00000000	      5.85556305	     18.30020161	      1.49607310	      0.00000000	      3.10894295	      0.03275404	      0.02714456	      0.02917909	      0.02959066	      0.05627281	      0.06118612	      0.06348064	      0.05653140	      0.05498856	      0.05315375	      0.02338774	      0.02981401	     -0.06162378	     -0.01652297	     -0.03023060	      0.02329057	      0.04532740	      0.00990047	     -0.02361632	      0.01549507	    327.61440401	     65.51072519	    142.26698670	     15.91585067	      0.00000000	      0.00000000	      0.00000000	      0.00000000
      0.00808761	      0.00011315	      0.00006498	      1.66574369	      4.38879677	      7.57451721	      0.00000000	      0.00000000	      0.00000000	      7.39103821	     19.84856023	      3.37308364	      0.00000000	      4.97858239	      0.03275247	      0.02713900	      0.02917740	      0.02958954	      0.05627975	      0.06119186	      0.06348761	      0.05653415	      0.05499226	      0.05315771	      0.02333891	      0.02960302	     -0.06167806	     -0.01656034	     -0.03011091	      0.02338641	      0.04544220	      0.00994962	     -0.02355073	      0.01557064	    319.72711302	     64.12903669	    132.27968820	     14.66380227	      0.00000000	      0.00000000	      0.00000000	      0.00000000
      0.00949874	      0.00013697	      0.00006081	      1.66574369	      5.17925639	      8.52415555	      0.00000000	      0.00000000	      0.00000000	      7.70723403	     20.16360693	      3.92154668	      0.00000000	      5.47335638	      0.03275522	      0.02713833	      0.02917745	      0.02959031	      0.05628855	      0.06119969	      0.06349658	      0.05653916	      0.05499816	      0.05316386	      0.02342474	      0.02957776	     -0.06167638	     -0.01653464	     -0.02995926	      0.02351739	      0.04558989	      0.01003913	     -0.02344589	      0.01568813	    315.36921069	     63.27429085	    125.48905519	     14.08683451	      0.00000000	      0.00000000	      0.00000000	      0.00000000
      0.01090986	      0.00015768	      0.00005534	      1.66574369	      5.93199193	      9.47082013	      0.00000000	      0.00000000	      0.00000000	      8.32999517	     20.75754509	      4.98259240	      0.00000000	      6.45381128	      0.03276024	      0.02714057	      0.02917826	      0.02959186	      0.05629748	      0.06120787	      0.06350577	      0.05654492	      0.05500471	      0.05317063	      0.02358166	      0.02966274	     -0.06165061	     -0.01648293	     -0.02980538	      0.02365430	      0.04574113	      0.01014190	     -0.02332953	      0.01581748	    304.88989414	     61.17370395	    117.87025452	     13.41266295	      0.00000000	      0.00000000	      0.00000000	      0.00000000
      0.01232099	      0.00017463	      0.00004859	      1.66574369	      6.10669521	      9.83739657	      0.00000000	      0.00000000	      0.00000000	      7.91243584	     20.31684697	      4.78289374	      0.00000000	      6.16309395	      0.03276692	      0.02714508	      0.02918031	      0.02959465	      0.05630662	      0.06121648	      0.06351519	      0.05655163	      0.05501211	      0.05317821	      0.02379044	      0.02983366	     -0.06158456	     -0.01639030	     -0.02964789	      0.02379819	      0.04589633	      0.01026183	     -0.02319826	      0.01596225	    300.30467825	     60.01342628	    113.94841127	     13.24968812	      0.00000000	      0.00000000	      0.00000000	      0.00000000
      0.01373211	      0.00018793	      0.00004187	      1.66574369	      6.33217567	     10.24964348	      0.00000000	      0.00000000	      0.00000000	      7.97054525	     20.33468840	      5.16863380	      0.00000000	      6.45190071	      0.03277384	      0.02715036	      0.02918276	      0.02959775	      0.05631488	      0.06122437	      0.06352373	      0.05655817	      0.05501920	      0.05318545	      0.02400641	      0.03003403	     -0.06150588	     -0.01628747	     -0.02950558	      0.02393011	      0.04603694	      0.01037869	     -0.02307232	      0.01610059	    291.31170162	     58.01900002	    109.23402699	     12.76953796	      0.00000000	      0.00000000	      0.00000000	      0.00000000
      0.01514323	      0.00019761	      0.00003493	      1.66574369	      6.09614431	     10.15423474	      0.00000000	      0.00000000	      0.00000000	      7.36427897	     19.70278811	      4.75749649	      0.00000000	      5.95464568	      0.03278067	      0.02715600	      0.02918620	      0.02960172	      0.05632272	      0.06123196	      0.06353181	      0.05656504	      0.05502650	      0.05319286	      0.02422004	      0.03024818	     -0.06139525	     -0.01615526	     -0.02937044	      0.02405721	      0.04616995	      0.01050147	     -0.02294274	      0.01624220	    287.05951118	     56.86608260	    107.29313679	     12.59829439	      0.00000000	      0.00000000	      0.00000000	      0.00000000
      0.01675754	      0.00020501	      0.00002779	      1.66574369	      5.96505849	     10.15639477	      0.00000000	      0.00000000	      0.00000000	      7.17858371	     19.48528331	      4.91963202	      0.00000000	      6.03317602	      0.03278723	      0.02716159	      0.02919055	      0.02960652	      0.05633042	      0.06123948	      0.06353969	      0.05657243	      0.05503424	      0.05320070	      0.02442478	      0.03045997	     -0.06125509	     -0.01599569	     -0.02923779	      0.02418285	      0.04629979	      0.01063350	     -0.02280531	      0.01639190	    278.74012270	     55.14155687	    104.48865612	     12.32800080	      0.00000000	      0.00000000	      0.00000000	      0.00000000
      0.01837184	      0.00020906	      0.00002107	      1.66574369	      5.63996184	      9.93247809	      0.00000000	      0.00000000	      0.00000000	      6.55811424	     18.85086696	      4.54161509	      0.00000000	      5.59233200	      0.03279272	      0.02716643	      0.02919567	      0.02961192	      0.05633727	      0.06124622	      0.06354665	      0.05657980	      0.05504183	      0.05320835	      0.02459629	      0.03064381	     -0.06109069	     -0.01581639	     -0.02911965	      0.02429567	      0.04641440	      0.01076505	     -0.02267050	      0.01653819	    274.17029365	     54.18773990	    103.41420356	     12.25098368	      0.00000000	      0.00000000	      0.00000000	      0.00000000
